<svg width="639" height="347" viewBox="0 0 639 347" fill="none" xmlns="http://www.w3.org/2000/svg">
<rect x="1.5" y="1.5" width="636" height="344" rx="18.5" stroke="black" stroke-width="3"/>
<path d="M219.41 78H215.895V70.6875H209.039V78H205.523V60.9375H209.039V67.8516H215.895V60.9375H219.41V78ZM223.782 71.543C223.782 70.2852 224.024 69.1641 224.509 68.1797C224.993 67.1953 225.688 66.4336 226.595 65.8945C227.509 65.3555 228.567 65.0859 229.77 65.0859C231.481 65.0859 232.876 65.6094 233.954 66.6562C235.04 67.7031 235.645 69.125 235.77 70.9219L235.794 71.7891C235.794 73.7344 235.251 75.2969 234.165 76.4766C233.079 77.6484 231.622 78.2344 229.794 78.2344C227.966 78.2344 226.505 77.6484 225.411 76.4766C224.325 75.3047 223.782 73.7109 223.782 71.6953V71.543ZM227.169 71.7891C227.169 72.9922 227.395 73.9141 227.849 74.5547C228.302 75.1875 228.95 75.5039 229.794 75.5039C230.614 75.5039 231.255 75.1914 231.716 74.5664C232.177 73.9336 232.407 72.9258 232.407 71.543C232.407 70.3633 232.177 69.4492 231.716 68.8008C231.255 68.1523 230.606 67.8281 229.77 67.8281C228.942 67.8281 228.302 68.1523 227.849 68.8008C227.395 69.4414 227.169 70.4375 227.169 71.7891ZM250.947 73.3945L252.611 65.3203H255.881L252.646 78H249.81L247.408 70.0195L245.006 78H242.182L238.947 65.3203H242.217L243.869 73.3828L246.189 65.3203H248.639L250.947 73.3945ZM273.191 71.1562L271.363 73.125V78H267.847V60.9375H271.363V68.6719L272.91 66.5508L277.258 60.9375H281.582L275.523 68.5195L281.758 78H277.574L273.191 71.1562ZM289.165 73.207L291.509 65.3203H295.141L290.044 79.9688L289.762 80.6367C289.005 82.293 287.755 83.1211 286.012 83.1211C285.52 83.1211 285.02 83.0469 284.512 82.8984V80.332L285.028 80.3438C285.669 80.3438 286.145 80.2461 286.458 80.0508C286.778 79.8555 287.028 79.5312 287.208 79.0781L287.606 78.0352L283.165 65.3203H286.809L289.165 73.207ZM297.802 71.543C297.802 70.2852 298.045 69.1641 298.529 68.1797C299.013 67.1953 299.709 66.4336 300.615 65.8945C301.529 65.3555 302.588 65.0859 303.791 65.0859C305.502 65.0859 306.896 65.6094 307.974 66.6562C309.06 67.7031 309.666 69.125 309.791 70.9219L309.814 71.7891C309.814 73.7344 309.271 75.2969 308.185 76.4766C307.099 77.6484 305.642 78.2344 303.814 78.2344C301.986 78.2344 300.525 77.6484 299.431 76.4766C298.345 75.3047 297.802 73.7109 297.802 71.6953V71.543ZM301.189 71.7891C301.189 72.9922 301.416 73.9141 301.869 74.5547C302.322 75.1875 302.97 75.5039 303.814 75.5039C304.635 75.5039 305.275 75.1914 305.736 74.5664C306.197 73.9336 306.427 72.9258 306.427 71.543C306.427 70.3633 306.197 69.4492 305.736 68.8008C305.275 68.1523 304.627 67.8281 303.791 67.8281C302.963 67.8281 302.322 68.1523 301.869 68.8008C301.416 69.4414 301.189 70.4375 301.189 71.7891ZM317.995 62.2031V65.3203H320.163V67.8047H317.995V74.1328C317.995 74.6016 318.085 74.9375 318.264 75.1406C318.444 75.3438 318.788 75.4453 319.296 75.4453C319.671 75.4453 320.003 75.418 320.292 75.3633V77.9297C319.628 78.1328 318.944 78.2344 318.241 78.2344C315.866 78.2344 314.655 77.0352 314.608 74.6367V67.8047H312.757V65.3203H314.608V62.2031H317.995ZM323.211 71.543C323.211 70.2852 323.453 69.1641 323.937 68.1797C324.422 67.1953 325.117 66.4336 326.023 65.8945C326.937 65.3555 327.996 65.0859 329.199 65.0859C330.91 65.0859 332.304 65.6094 333.382 66.6562C334.468 67.7031 335.074 69.125 335.199 70.9219L335.222 71.7891C335.222 73.7344 334.679 75.2969 333.593 76.4766C332.507 77.6484 331.05 78.2344 329.222 78.2344C327.394 78.2344 325.933 77.6484 324.84 76.4766C323.754 75.3047 323.211 73.7109 323.211 71.6953V71.543ZM326.597 71.7891C326.597 72.9922 326.824 73.9141 327.277 74.5547C327.73 75.1875 328.379 75.5039 329.222 75.5039C330.043 75.5039 330.683 75.1914 331.144 74.5664C331.605 73.9336 331.836 72.9258 331.836 71.543C331.836 70.3633 331.605 69.4492 331.144 68.8008C330.683 68.1523 330.035 67.8281 329.199 67.8281C328.371 67.8281 327.73 68.1523 327.277 68.8008C326.824 69.4414 326.597 70.4375 326.597 71.7891ZM346.18 68.4492H350.411V71.5078H346.18V76.2891H342.958V71.5078H338.715V68.4492H342.958V63.8672H346.18V68.4492ZM376.018 73.0781L378.315 60.9375H381.819L378.034 78H374.495L371.717 66.5859L368.94 78H365.401L361.616 60.9375H365.12L367.428 73.0547L370.241 60.9375H373.217L376.018 73.0781ZM384.644 71.543C384.644 70.2852 384.886 69.1641 385.371 68.1797C385.855 67.1953 386.55 66.4336 387.457 65.8945C388.371 65.3555 389.429 65.0859 390.632 65.0859C392.343 65.0859 393.738 65.6094 394.816 66.6562C395.902 67.7031 396.507 69.125 396.632 70.9219L396.656 71.7891C396.656 73.7344 396.113 75.2969 395.027 76.4766C393.941 77.6484 392.484 78.2344 390.656 78.2344C388.828 78.2344 387.367 77.6484 386.273 76.4766C385.187 75.3047 384.644 73.7109 384.644 71.6953V71.543ZM388.031 71.7891C388.031 72.9922 388.257 73.9141 388.71 74.5547C389.164 75.1875 389.812 75.5039 390.656 75.5039C391.476 75.5039 392.117 75.1914 392.578 74.5664C393.039 73.9336 393.269 72.9258 393.269 71.543C393.269 70.3633 393.039 69.4492 392.578 68.8008C392.117 68.1523 391.468 67.8281 390.632 67.8281C389.804 67.8281 389.164 68.1523 388.71 68.8008C388.257 69.4414 388.031 70.4375 388.031 71.7891ZM407.907 68.4961C407.446 68.4336 407.04 68.4023 406.688 68.4023C405.407 68.4023 404.567 68.8359 404.168 69.7031V78H400.782V65.3203H403.981L404.075 66.832C404.754 65.668 405.696 65.0859 406.899 65.0859C407.274 65.0859 407.625 65.1367 407.954 65.2383L407.907 68.4961ZM416.193 72.9141L414.974 74.1328V78H411.587V60H414.974V69.9727L415.63 69.1289L418.876 65.3203H422.943L418.361 70.6055L423.341 78H419.451L416.193 72.9141ZM433.315 74.4961C433.315 74.082 433.108 73.7578 432.694 73.5234C432.288 73.2812 431.631 73.0664 430.725 72.8789C427.709 72.2461 426.202 70.9648 426.202 69.0352C426.202 67.9102 426.666 66.9727 427.596 66.2227C428.534 65.4648 429.756 65.0859 431.264 65.0859C432.873 65.0859 434.159 65.4648 435.12 66.2227C436.088 66.9805 436.573 67.9648 436.573 69.1758H433.186C433.186 68.6914 433.03 68.293 432.717 67.9805C432.405 67.6602 431.916 67.5 431.252 67.5C430.682 67.5 430.241 67.6289 429.928 67.8867C429.616 68.1445 429.459 68.4727 429.459 68.8711C429.459 69.2461 429.635 69.5508 429.987 69.7852C430.346 70.0117 430.948 70.2109 431.791 70.3828C432.635 70.5469 433.346 70.7344 433.924 70.9453C435.713 71.6016 436.608 72.7383 436.608 74.3555C436.608 75.5117 436.112 76.4492 435.12 77.168C434.127 77.8789 432.846 78.2344 431.276 78.2344C430.213 78.2344 429.268 78.0469 428.44 77.6719C427.62 77.2891 426.975 76.7695 426.506 76.1133C426.038 75.4492 425.803 74.7344 425.803 73.9688H429.014C429.045 74.5703 429.268 75.0312 429.682 75.3516C430.096 75.6719 430.651 75.832 431.346 75.832C431.995 75.832 432.483 75.7109 432.811 75.4688C433.147 75.2188 433.315 74.8945 433.315 74.4961ZM443.605 72.7617C443.605 71.668 443.738 70.7969 444.003 70.1484C444.269 69.5 444.753 68.8633 445.456 68.2383C446.167 67.6055 446.64 67.0938 446.874 66.7031C447.109 66.3047 447.226 65.8867 447.226 65.4492C447.226 64.1289 446.617 63.4688 445.398 63.4688C444.82 63.4688 444.355 63.6484 444.003 64.0078C443.66 64.3594 443.48 64.8477 443.464 65.4727H440.066C440.081 63.9805 440.562 62.8125 441.507 61.9688C442.46 61.125 443.757 60.7031 445.398 60.7031C447.054 60.7031 448.339 61.1055 449.253 61.9102C450.167 62.707 450.624 63.8359 450.624 65.2969C450.624 65.9609 450.476 66.5898 450.179 67.1836C449.882 67.7695 449.363 68.4219 448.62 69.1406L447.671 70.043C447.077 70.6133 446.738 71.2812 446.652 72.0469L446.605 72.7617H443.605ZM443.265 76.3594C443.265 75.8359 443.441 75.4062 443.792 75.0703C444.152 74.7266 444.609 74.5547 445.163 74.5547C445.718 74.5547 446.171 74.7266 446.523 75.0703C446.882 75.4062 447.062 75.8359 447.062 76.3594C447.062 76.875 446.886 77.3008 446.535 77.6367C446.191 77.9727 445.734 78.1406 445.163 78.1406C444.593 78.1406 444.132 77.9727 443.781 77.6367C443.437 77.3008 443.265 76.875 443.265 76.3594Z" fill="black"/>
<path d="M242.824 100.576C242.872 100.832 242.984 101.36 243.112 102.032C241.736 102.256 240.504 102.432 239.944 102.496C239.448 102.56 238.968 102.592 238.456 102.608L238.888 104.816C239.432 104.672 239.848 104.592 240.36 104.48C240.856 104.4 242.088 104.192 243.496 103.968C243.64 104.784 243.816 105.68 243.976 106.544C242.36 106.8 240.872 107.04 240.136 107.136C239.624 107.2 238.904 107.296 238.472 107.312L238.92 109.456C239.288 109.36 239.832 109.248 240.52 109.12C241.208 108.992 242.712 108.736 244.344 108.464C244.6 109.808 244.808 110.912 244.888 111.376C244.984 111.84 245.032 112.4 245.112 112.992L247.416 112.576C247.272 112.064 247.112 111.488 247 111.008C246.904 110.512 246.68 109.44 246.424 108.128C247.832 107.904 249.128 107.696 249.896 107.568C250.504 107.472 251.16 107.36 251.592 107.328L251.16 105.216C250.744 105.344 250.152 105.472 249.528 105.6C248.808 105.744 247.496 105.968 246.056 106.208C245.88 105.328 245.72 104.448 245.56 103.648C246.888 103.44 248.104 103.248 248.76 103.136C249.24 103.072 249.88 102.976 250.232 102.944L249.848 100.848C249.464 100.96 248.856 101.088 248.344 101.184C247.768 101.296 246.552 101.488 245.192 101.712C245.064 100.992 244.968 100.464 244.936 100.24C244.856 99.856 244.808 99.312 244.76 98.992L242.504 99.36C242.616 99.744 242.728 100.112 242.824 100.576ZM257.768 102.96V104.896C258.152 104.864 259.16 104.832 259.752 104.832H265.032V106.768H259.928C259.32 106.768 258.6 106.752 258.184 106.72V108.608C258.552 108.592 259.32 108.576 259.928 108.576H265.032V110.704H258.984C258.408 110.704 257.864 110.672 257.592 110.64V112.608C257.864 112.592 258.52 112.56 258.968 112.56H265.032C265.032 112.8 265.032 113.056 265.016 113.2H267.032C267.032 112.912 267.016 112.368 267.016 112.112V104.08C267.016 103.744 267.016 103.216 267.032 103.008C266.776 103.024 266.184 103.04 265.8 103.04H259.752C259.16 103.04 258.184 103.008 257.768 102.96ZM280.872 98.928H278.408C278.52 99.616 278.536 99.952 278.536 100.4V101.632H275.112C274.504 101.632 274.024 101.616 273.48 101.552C273.544 101.936 273.56 102.576 273.56 102.928V105.696C273.56 106.128 273.528 106.64 273.48 107.04H275.688C275.656 106.72 275.64 106.224 275.64 105.856V103.52H283.576C283.384 104.944 282.968 106.464 282.152 107.632C281.256 108.928 279.848 109.872 278.52 110.368C277.864 110.624 276.984 110.864 276.264 110.992L277.928 112.912C280.776 112.176 283.176 110.48 284.456 108.112C285.24 106.656 285.672 105.12 285.944 103.584C286.008 103.264 286.136 102.656 286.264 102.304L284.872 101.456C284.6 101.552 284.216 101.632 283.544 101.632H280.76V100.4C280.76 99.952 280.792 99.616 280.872 98.928ZM294.104 110.464C294.104 111.104 294.04 112.064 293.944 112.704H296.44C296.376 112.048 296.296 110.928 296.296 110.464V105.936C298.024 106.528 300.424 107.456 302.072 108.32L302.984 106.112C301.512 105.392 298.44 104.256 296.296 103.632V101.264C296.296 100.608 296.376 99.904 296.44 99.344H293.944C294.056 99.904 294.104 100.704 294.104 101.264V110.464ZM319.304 100.272C319.304 99.76 319.72 99.344 320.232 99.344C320.728 99.344 321.144 99.76 321.144 100.272C321.144 100.768 320.728 101.184 320.232 101.184C319.72 101.184 319.304 100.768 319.304 100.272ZM318.312 100.272C318.312 100.384 318.328 100.48 318.344 100.576C318.008 100.624 317.656 100.64 317.432 100.64H310.024C309.496 100.64 308.584 100.576 308.12 100.512V102.768C308.52 102.736 309.288 102.704 310.024 102.704H317.464C317.256 104.08 316.648 105.888 315.592 107.216C314.296 108.848 312.488 110.24 309.32 110.976L311.064 112.896C313.912 111.968 316.056 110.384 317.496 108.464C318.84 106.688 319.528 104.208 319.896 102.64C319.944 102.496 319.976 102.336 320.024 102.16C320.088 102.176 320.168 102.176 320.232 102.176C321.272 102.176 322.136 101.312 322.136 100.272C322.136 99.216 321.272 98.352 320.232 98.352C319.176 98.352 318.312 99.216 318.312 100.272ZM327.368 99.728V101.792C327.832 101.76 328.52 101.744 329.032 101.744H335.16C335.736 101.744 336.488 101.76 336.92 101.792V99.728C336.472 99.792 335.688 99.808 335.192 99.808H329.032C328.488 99.808 327.816 99.792 327.368 99.728ZM338.264 104.368L336.84 103.488C336.616 103.584 336.184 103.648 335.672 103.648H327.752C327.256 103.648 326.568 103.6 325.896 103.552V105.632C326.568 105.568 327.368 105.552 327.752 105.552H335.48C335.192 106.448 334.696 107.44 333.832 108.32C332.616 109.568 330.696 110.624 328.296 111.12L329.88 112.928C331.928 112.352 333.976 111.264 335.592 109.472C336.792 108.144 337.48 106.592 337.96 105.04C338.024 104.864 338.152 104.576 338.264 104.368ZM354.192 101.152L352.88 100.176C352.56 100.288 351.92 100.384 351.232 100.384H345.584C345.104 100.384 344.128 100.336 343.696 100.272V102.544C344.032 102.528 344.912 102.432 345.584 102.432H351.008C350.656 103.568 349.68 105.152 348.624 106.352C347.12 108.032 344.64 109.984 342.064 110.944L343.712 112.672C345.904 111.632 348.032 109.968 349.728 108.176C351.232 109.632 352.72 111.264 353.76 112.704L355.584 111.12C354.64 109.968 352.704 107.92 351.12 106.544C352.192 105.104 353.088 103.392 353.632 102.144C353.776 101.824 354.064 101.328 354.192 101.152ZM373.039 106.368C373.039 102.88 370.543 100.128 366.575 100.128C362.431 100.128 359.231 103.28 359.231 106.976C359.231 109.68 360.703 111.632 362.479 111.632C364.223 111.632 365.599 109.648 366.559 106.416C367.023 104.912 367.295 103.44 367.519 102.08C369.679 102.448 370.879 104.096 370.879 106.304C370.879 108.64 369.279 110.112 367.231 110.592C366.799 110.688 366.351 110.784 365.743 110.848L366.943 112.752C370.975 112.128 373.039 109.744 373.039 106.368ZM361.279 106.768C361.279 105.008 362.703 102.672 365.343 102.128C365.167 103.456 364.863 104.816 364.495 106C363.839 108.16 363.215 109.168 362.543 109.168C361.919 109.168 361.279 108.384 361.279 106.768ZM379.936 98.48C379.04 100.848 377.488 103.168 375.872 104.64C376.224 105.104 376.784 106.128 376.976 106.592C377.408 106.16 377.84 105.696 378.256 105.168V113.376H380.144V102.416C380.784 101.312 381.344 100.192 381.792 99.072L379.936 98.48ZM391.056 105.136V103.28H387.008V98.768H385.056V103.28H380.816V105.136H385.056V110.96H381.216V112.784H390.784V110.96H387.008V105.136H391.056ZM394.064 107.808C393.936 109.152 393.68 110.576 393.216 111.52C393.632 111.664 394.336 112 394.672 112.208C395.136 111.184 395.472 109.584 395.632 108.08L394.064 107.808ZM398.512 106.768C398.608 107.088 398.688 107.376 398.736 107.632L400.176 106.96C399.984 106.048 399.344 104.656 398.704 103.584L397.36 104.176C397.552 104.512 397.744 104.896 397.92 105.28L396.304 105.344C397.344 104.048 398.464 102.416 399.36 101.008L397.744 100.336C397.36 101.136 396.848 102.064 396.272 102.96C396.112 102.752 395.92 102.512 395.712 102.288C396.288 101.392 396.944 100.16 397.52 99.056L395.84 98.464C395.568 99.296 395.12 100.368 394.672 101.248C394.544 101.136 394.416 101.024 394.288 100.912L393.392 102.224C394.064 102.864 394.848 103.728 395.312 104.416C395.072 104.768 394.816 105.104 394.576 105.408L393.392 105.456L393.552 107.12L395.92 106.96V113.408H397.6V106.832L398.512 106.768ZM397.632 108.16C398.032 109.136 398.448 110.432 398.576 111.248L400.08 110.72C399.888 109.904 399.472 108.656 399.04 107.712L397.632 108.16ZM402.4 108.88H405.456V111.248H402.4V108.88ZM405.456 100.96V103.184H402.4V100.96H405.456ZM405.456 107.168H402.4V104.88H405.456V107.168ZM407.376 111.248V99.248H400.56V111.248H399.088V112.96H408.448V111.248H407.376ZM413.712 99.888L413.792 101.952C414.208 101.888 414.768 101.84 415.088 101.824C415.824 101.776 417.2 101.728 417.84 101.696C417.472 102.448 417.008 103.536 416.56 104.592C413.344 104.736 411.088 106.624 411.088 109.104C411.088 110.72 412.144 111.696 413.552 111.696C414.64 111.696 415.408 111.248 416.048 110.288C416.608 109.408 417.28 107.808 417.856 106.448C419.232 106.64 420.512 107.12 421.648 107.744C421.12 109.2 420 110.72 417.584 111.76L419.28 113.152C421.424 112.032 422.64 110.624 423.344 108.816C423.84 109.184 424.304 109.552 424.72 109.936L425.648 107.712C425.184 107.392 424.608 107.024 423.936 106.64C424.096 105.744 424.176 104.752 424.24 103.68L422.144 103.44C422.192 103.92 422.192 104.56 422.144 105.184C422.128 105.36 422.112 105.536 422.096 105.728C421.056 105.28 419.872 104.896 418.624 104.704C419.2 103.344 419.808 101.952 420.224 101.264C420.352 101.04 420.544 100.832 420.768 100.592L419.488 99.6C419.216 99.712 418.8 99.808 418.4 99.824C417.648 99.888 415.952 99.968 415.04 99.968C414.688 99.968 414.144 99.936 413.712 99.888ZM412.96 108.8C412.96 107.792 413.968 106.704 415.76 106.432C415.312 107.44 414.88 108.448 414.464 109.04C414.176 109.44 413.952 109.6 413.632 109.6C413.264 109.6 412.96 109.328 412.96 108.8Z" fill="black"/>
<path d="M179.272 176.68C179.524 175.756 179.716 174.328 179.74 173.332L178.732 173.2C178.672 174.172 178.492 175.516 178.24 176.332L179.272 176.68ZM183.832 179.272V178.72H187.42V179.272H183.832ZM187.42 177.148V177.712H183.832V177.148H187.42ZM188.764 176.104H182.512V182.056H183.832V180.256H187.42V180.652C187.42 180.796 187.36 180.844 187.192 180.844C187.036 180.844 186.472 180.856 185.98 180.82C186.148 181.168 186.316 181.684 186.364 182.032C187.192 182.032 187.792 182.032 188.212 181.828C188.644 181.636 188.764 181.3 188.764 180.676V176.104ZM186.304 174.628V174.112H188.884V173.152H186.304V172.672H189.208V171.652H186.304V170.836H184.888V171.652H182.08V172.672H184.888V173.152H182.404V174.1C182.26 173.656 181.984 172.984 181.732 172.468L181.048 172.756V170.836H179.764V182.032H181.048V173.308C181.24 173.776 181.408 174.28 181.492 174.628L182.428 174.172L182.404 174.112H184.888V174.628H181.708V175.648H189.568V174.628H186.304ZM194.596 176.5H192.856L193.24 176.392C193.192 176.056 193.024 175.54 192.82 175.108H194.644C194.536 175.516 194.356 176.032 194.212 176.392L194.596 176.5ZM194.392 173.08H195.952V171.904H194.392V170.86H193.072V171.904H191.356V173.08H193.072V173.908H190.936V175.108H192.124L191.692 175.216C191.86 175.612 192.016 176.116 192.088 176.5H191.188V177.7H193.072V178.624H191.284V179.824H193.072V182.008H194.392V179.824H196.084V178.624H194.392V177.7H196.216V176.5H195.316C195.484 176.14 195.664 175.672 195.868 175.228L195.4 175.108H196.396V173.908H194.392V173.08ZM197.908 177.076C198.208 178.024 198.592 178.9 199.06 179.668C198.724 180.136 198.34 180.544 197.908 180.892V177.076ZM200.404 176.584C200.26 177.232 200.044 177.868 199.768 178.444C199.42 177.868 199.132 177.244 198.916 176.584H200.404ZM201.04 175.396L200.8 175.456H197.908V172.588H200.296V173.572C200.296 173.704 200.236 173.74 200.056 173.752C199.876 173.752 199.216 173.752 198.628 173.728C198.796 174.076 198.976 174.568 199.036 174.952C199.912 174.952 200.56 174.94 201.016 174.748C201.484 174.556 201.616 174.208 201.616 173.596V171.34H196.612V182.032H197.908V181.324C198.16 181.552 198.412 181.828 198.568 182.068C199.06 181.708 199.492 181.276 199.876 180.784C200.32 181.288 200.812 181.72 201.376 182.056C201.58 181.696 201.988 181.192 202.3 180.928C201.676 180.616 201.124 180.16 200.632 179.62C201.244 178.492 201.664 177.148 201.892 175.696L201.04 175.396ZM212.524 172.816H209.284V172.216H212.524V172.816ZM212.524 174.34H209.284V173.728H212.524V174.34ZM213.892 171.208H207.976V175.348H213.892V171.208ZM207.376 177.196L207.184 175.912L206.104 176.2V174.424H207.304V173.104H206.104V170.836H204.808V173.104H203.512V174.424H204.808V176.548C204.268 176.68 203.788 176.812 203.38 176.896L203.704 178.276C204.052 178.18 204.412 178.072 204.808 177.964V180.364C204.808 180.52 204.748 180.568 204.604 180.568C204.46 180.58 204.052 180.58 203.608 180.568C203.788 180.94 203.944 181.528 203.98 181.876C204.748 181.888 205.276 181.84 205.636 181.6C205.996 181.384 206.104 181.036 206.104 180.376V177.58L207.376 177.196ZM211.564 179.224H213.856V178.108H211.564V177.052H214.492V175.9H207.4V177.052H210.22V180.184C209.788 179.908 209.44 179.476 209.176 178.78C209.272 178.408 209.344 178 209.404 177.568L208.108 177.412C207.928 179.044 207.436 180.376 206.44 181.168C206.728 181.348 207.268 181.792 207.496 182.02C208.012 181.528 208.444 180.892 208.744 180.136C209.56 181.588 210.772 181.876 212.344 181.876H214.432C214.48 181.516 214.648 180.916 214.816 180.628C214.3 180.64 212.812 180.64 212.404 180.64C212.104 180.64 211.84 180.628 211.564 180.604V179.224ZM218.56 170.86C217.96 172.576 216.904 174.268 215.824 175.348C216.076 175.696 216.46 176.476 216.592 176.836C216.844 176.56 217.096 176.272 217.348 175.948V182.032H218.752V173.776C219.184 172.96 219.58 172.108 219.892 171.28L218.56 170.86ZM221.356 178.816C220.864 179.668 220.024 180.544 219.184 181.108C219.496 181.3 220.036 181.744 220.3 182.008C221.128 181.324 222.088 180.268 222.688 179.224L221.356 178.816ZM223.972 179.428C224.728 180.208 225.568 181.312 225.952 182.032L227.152 181.276C226.72 180.58 225.892 179.56 225.112 178.804L223.972 179.428ZM222.424 174.544H224.164V176.932H222.424V174.544ZM225.556 176.932V174.544H227.116V173.176H225.556V170.92H224.164V173.176H222.424V170.932H221.032V173.176H219.724V174.544H221.032V176.932H219.424V178.324H227.212V176.932H225.556Z" fill="black"/>
<path d="M514.568 251.047L517.125 258.266L519.668 251.047H522.361V261H520.304V258.279L520.509 253.583L517.822 261H516.414L513.734 253.59L513.939 258.279V261H511.889V251.047H514.568ZM528.547 261.137C527.462 261.137 526.578 260.804 525.894 260.139C525.215 259.473 524.876 258.587 524.876 257.479V257.288C524.876 256.545 525.019 255.882 525.307 255.299C525.594 254.711 525.999 254.26 526.523 253.945C527.052 253.626 527.654 253.467 528.328 253.467C529.34 253.467 530.135 253.786 530.714 254.424C531.297 255.062 531.589 255.966 531.589 257.138V257.944H526.879C526.943 258.427 527.134 258.815 527.453 259.106C527.777 259.398 528.184 259.544 528.677 259.544C529.438 259.544 530.032 259.268 530.461 258.717L531.432 259.804C531.135 260.223 530.734 260.551 530.228 260.788C529.723 261.021 529.162 261.137 528.547 261.137ZM528.321 255.066C527.929 255.066 527.61 255.199 527.364 255.463C527.123 255.727 526.968 256.105 526.899 256.598H529.647V256.44C529.638 256.003 529.52 255.666 529.292 255.429C529.064 255.187 528.74 255.066 528.321 255.066ZM535.689 253.604L535.751 254.431C536.275 253.788 536.983 253.467 537.877 253.467C538.829 253.467 539.483 253.843 539.839 254.595C540.358 253.843 541.099 253.467 542.06 253.467C542.862 253.467 543.459 253.701 543.851 254.171C544.243 254.636 544.439 255.338 544.439 256.276V261H542.457V256.283C542.457 255.864 542.375 255.559 542.211 255.367C542.047 255.171 541.757 255.073 541.343 255.073C540.75 255.073 540.34 255.356 540.112 255.921L540.119 261H538.143V256.29C538.143 255.862 538.059 255.552 537.89 255.36C537.722 255.169 537.435 255.073 537.029 255.073C536.469 255.073 536.063 255.306 535.812 255.771V261H533.837V253.604H535.689ZM553.749 257.37C553.749 258.555 553.496 259.48 552.99 260.146C552.484 260.806 551.778 261.137 550.871 261.137C550.069 261.137 549.428 260.829 548.95 260.214L548.861 261H547.084V250.5H549.059V254.267C549.515 253.733 550.114 253.467 550.857 253.467C551.759 253.467 552.466 253.799 552.976 254.465C553.491 255.126 553.749 256.058 553.749 257.261V257.37ZM551.773 257.227C551.773 256.479 551.655 255.935 551.418 255.593C551.181 255.246 550.827 255.073 550.358 255.073C549.729 255.073 549.296 255.331 549.059 255.846V258.765C549.301 259.284 549.738 259.544 550.372 259.544C551.01 259.544 551.429 259.229 551.63 258.601C551.725 258.3 551.773 257.842 551.773 257.227ZM559.497 261.137C558.412 261.137 557.528 260.804 556.844 260.139C556.165 259.473 555.826 258.587 555.826 257.479V257.288C555.826 256.545 555.969 255.882 556.256 255.299C556.543 254.711 556.949 254.26 557.473 253.945C558.002 253.626 558.603 253.467 559.278 253.467C560.29 253.467 561.085 253.786 561.664 254.424C562.247 255.062 562.539 255.966 562.539 257.138V257.944H557.829C557.892 258.427 558.084 258.815 558.403 259.106C558.726 259.398 559.134 259.544 559.626 259.544C560.388 259.544 560.982 259.268 561.411 258.717L562.381 259.804C562.085 260.223 561.684 260.551 561.178 260.788C560.672 261.021 560.112 261.137 559.497 261.137ZM559.271 255.066C558.879 255.066 558.56 255.199 558.314 255.463C558.072 255.727 557.917 256.105 557.849 256.598H560.597V256.44C560.588 256.003 560.47 255.666 560.242 255.429C560.014 255.187 559.69 255.066 559.271 255.066ZM568.943 255.456C568.674 255.42 568.437 255.401 568.232 255.401C567.484 255.401 566.995 255.654 566.762 256.16V261H564.787V253.604H566.653L566.707 254.485C567.104 253.806 567.653 253.467 568.355 253.467C568.574 253.467 568.779 253.496 568.97 253.556L568.943 255.456Z" fill="black"/>
<path d="M62.9893 264H60.9385V259.734H56.9395V264H54.8887V254.047H56.9395V258.08H60.9385V254.047H62.9893V264ZM65.1896 260.233C65.1896 259.5 65.3309 258.846 65.6134 258.271C65.896 257.697 66.3016 257.253 66.8302 256.938C67.3634 256.624 67.981 256.467 68.6828 256.467C69.6808 256.467 70.4943 256.772 71.1232 257.383C71.7567 257.993 72.1099 258.823 72.1828 259.871L72.1964 260.377C72.1964 261.512 71.8797 262.423 71.2463 263.111C70.6128 263.795 69.7629 264.137 68.6964 264.137C67.63 264.137 66.7778 263.795 66.1398 263.111C65.5063 262.428 65.1896 261.498 65.1896 260.322V260.233ZM67.1652 260.377C67.1652 261.079 67.2974 261.617 67.5617 261.99C67.826 262.359 68.2043 262.544 68.6964 262.544C69.175 262.544 69.5487 262.362 69.8175 261.997C70.0864 261.628 70.2209 261.04 70.2209 260.233C70.2209 259.545 70.0864 259.012 69.8175 258.634C69.5487 258.256 69.1704 258.066 68.6828 258.066C68.1997 258.066 67.826 258.256 67.5617 258.634C67.2974 259.007 67.1652 259.589 67.1652 260.377ZM76.6185 254.785V256.604H77.8831V258.053H76.6185V261.744C76.6185 262.018 76.6709 262.214 76.7757 262.332C76.8805 262.451 77.081 262.51 77.3773 262.51C77.596 262.51 77.7897 262.494 77.9583 262.462V263.959C77.571 264.077 77.1722 264.137 76.762 264.137C75.3766 264.137 74.6702 263.437 74.6429 262.038V258.053H73.5628V256.604H74.6429V254.785H76.6185ZM83.228 264.137C82.1434 264.137 81.2593 263.804 80.5757 263.139C79.8966 262.473 79.5571 261.587 79.5571 260.479V260.288C79.5571 259.545 79.7007 258.882 79.9878 258.299C80.2749 257.711 80.6805 257.26 81.2046 256.945C81.7332 256.626 82.3348 256.467 83.0093 256.467C84.021 256.467 84.8162 256.786 85.395 257.424C85.9783 258.062 86.27 258.966 86.27 260.138V260.944H81.56C81.6238 261.427 81.8152 261.815 82.1343 262.106C82.4578 262.398 82.8657 262.544 83.3579 262.544C84.119 262.544 84.7137 262.268 85.1421 261.717L86.1128 262.804C85.8165 263.223 85.4155 263.551 84.9096 263.788C84.4038 264.021 83.8432 264.137 83.228 264.137ZM83.0024 258.066C82.6105 258.066 82.2915 258.199 82.0454 258.463C81.8039 258.727 81.6489 259.105 81.5805 259.598H84.3286V259.44C84.3195 259.003 84.201 258.666 83.9731 258.429C83.7453 258.187 83.4217 258.066 83.0024 258.066ZM90.3229 264H88.3405V253.5H90.3229V264ZM102.414 261.389C102.414 261.001 102.277 260.705 102.004 260.5C101.73 260.29 101.238 260.072 100.527 259.844C99.8164 259.611 99.2535 259.383 98.8388 259.16C97.7086 258.549 97.1435 257.727 97.1435 256.692C97.1435 256.155 97.2939 255.676 97.5947 255.257C97.9 254.833 98.3352 254.503 98.9004 254.266C99.47 254.029 100.108 253.91 100.814 253.91C101.525 253.91 102.159 254.04 102.715 254.3C103.271 254.555 103.701 254.917 104.007 255.387C104.317 255.856 104.472 256.389 104.472 256.986H102.421C102.421 256.531 102.277 256.177 101.99 255.927C101.703 255.672 101.3 255.544 100.78 255.544C100.279 255.544 99.8893 255.651 99.6113 255.865C99.3333 256.075 99.1943 256.353 99.1943 256.699C99.1943 257.023 99.3561 257.294 99.6796 257.513C100.008 257.731 100.489 257.937 101.122 258.128C102.289 258.479 103.139 258.914 103.672 259.434C104.205 259.953 104.472 260.6 104.472 261.375C104.472 262.236 104.146 262.913 103.494 263.405C102.842 263.893 101.965 264.137 100.862 264.137C100.097 264.137 99.3994 263.998 98.7705 263.72C98.1416 263.437 97.6608 263.052 97.3281 262.564C97 262.077 96.8359 261.512 96.8359 260.869H98.8935C98.8935 261.967 99.5498 262.517 100.862 262.517C101.35 262.517 101.73 262.419 102.004 262.223C102.277 262.022 102.414 261.744 102.414 261.389ZM108.942 254.785V256.604H110.206V258.053H108.942V261.744C108.942 262.018 108.994 262.214 109.099 262.332C109.204 262.451 109.404 262.51 109.7 262.51C109.919 262.51 110.113 262.494 110.281 262.462V263.959C109.894 264.077 109.495 264.137 109.085 264.137C107.7 264.137 106.993 263.437 106.966 262.038V258.053H105.886V256.604H106.966V254.785H108.942ZM116.433 264C116.342 263.822 116.276 263.601 116.235 263.337C115.756 263.87 115.134 264.137 114.368 264.137C113.644 264.137 113.042 263.927 112.564 263.508C112.09 263.089 111.853 262.56 111.853 261.922C111.853 261.138 112.142 260.536 112.721 260.117C113.304 259.698 114.145 259.486 115.243 259.481H116.153V259.058C116.153 258.716 116.064 258.442 115.886 258.237C115.713 258.032 115.437 257.93 115.059 257.93C114.726 257.93 114.464 258.009 114.273 258.169C114.086 258.328 113.992 258.547 113.992 258.825H112.017C112.017 258.397 112.149 258 112.413 257.636C112.678 257.271 113.051 256.986 113.534 256.781C114.018 256.572 114.56 256.467 115.161 256.467C116.073 256.467 116.795 256.697 117.328 257.157C117.866 257.613 118.135 258.256 118.135 259.085V262.291C118.14 262.993 118.238 263.524 118.429 263.884V264H116.433ZM114.799 262.626C115.091 262.626 115.36 262.562 115.606 262.435C115.852 262.302 116.034 262.127 116.153 261.908V260.637H115.414C114.425 260.637 113.899 260.979 113.835 261.662L113.828 261.778C113.828 262.024 113.915 262.227 114.088 262.387C114.261 262.546 114.498 262.626 114.799 262.626ZM121.033 264V258.053H119.932V256.604H121.033V255.975C121.033 255.145 121.27 254.503 121.744 254.047C122.222 253.587 122.89 253.356 123.747 253.356C124.02 253.356 124.355 253.402 124.751 253.493L124.731 255.024C124.567 254.983 124.366 254.963 124.129 254.963C123.386 254.963 123.015 255.312 123.015 256.009V256.604H124.485V258.053H123.015V264H121.033ZM126.89 264V258.053H125.79V256.604H126.89V255.975C126.89 255.145 127.127 254.503 127.601 254.047C128.08 253.587 128.747 253.356 129.604 253.356C129.878 253.356 130.213 253.402 130.609 253.493L130.588 255.024C130.424 254.983 130.224 254.963 129.987 254.963C129.244 254.963 128.873 255.312 128.873 256.009V256.604H130.342V258.053H128.873V264H126.89Z" fill="black"/>
<path d="M531.16 273.53C531.92 272.94 532.56 272.29 532.99 271.68C533.45 272.3 534.14 272.95 534.91 273.53H531.16ZM530.67 274.62H535.34V273.83C535.89 274.21 536.47 274.54 537.02 274.8C537.23 274.45 537.49 274.02 537.79 273.71C536.21 273.15 534.62 272.01 533.56 270.54H532.32C531.57 271.72 529.98 273.14 528.28 273.89C528.53 274.15 528.84 274.6 528.98 274.89C529.56 274.61 530.14 274.27 530.67 273.89V274.62ZM528.9 276.55H531.22C531.01 277.14 530.73 277.8 530.46 278.36L528.95 278.41L529.11 279.57C530.81 279.49 533.28 279.39 535.63 279.26C535.79 279.48 535.93 279.69 536.03 279.88L537.14 279.21C536.67 278.46 535.74 277.42 534.85 276.64L533.8 277.19C534.13 277.49 534.47 277.85 534.78 278.21C533.76 278.25 532.73 278.29 531.77 278.32C532.07 277.76 532.4 277.14 532.69 276.55H537.17V275.45H528.9V276.55ZM546.94 272.42H542.9V271.77H546.94V272.42ZM548.21 270.84H541.7V273.34H548.21V270.84ZM542.43 276.89H547.33V277.33H542.43V276.89ZM542.43 275.71H547.33V276.13H542.43V275.71ZM542.43 274.52H547.33V274.95H542.43V274.52ZM548.56 278.13V273.71H541.25V278.13H542.82C542.14 278.47 541.11 278.83 540.24 279.02C540.51 279.25 540.92 279.62 541.14 279.87C542.15 279.62 543.43 279.14 544.24 278.67L543.47 278.13H546.2L545.36 278.73C546.42 279.04 547.8 279.53 548.57 279.89L549.62 279.05C548.93 278.77 547.88 278.41 546.94 278.13H548.56Z" fill="black"/>
<path d="M75.89 270.99H74.41C74.44 271.16 74.49 271.6 74.49 271.86V272.66H71.95C71.64 272.66 71.29 272.62 70.99 272.59V273.91C71.27 273.88 71.65 273.87 71.95 273.87H74.49V273.88C74.49 274.35 74.49 277.52 74.48 277.89C74.47 278.15 74.38 278.25 74.12 278.25C73.87 278.25 73.43 278.21 73 278.13L73.13 279.37C73.63 279.44 74.22 279.46 74.75 279.46C75.46 279.46 75.8 279.1 75.8 278.52V273.87H78.13C78.41 273.87 78.8 273.88 79.11 273.9V272.59C78.84 272.63 78.41 272.66 78.12 272.66H75.8V271.86C75.8 271.61 75.86 271.13 75.89 270.99ZM73.54 275.29L72.4 274.76C71.99 275.61 71.19 276.71 70.52 277.34L71.61 278.08C72.15 277.49 73.08 276.18 73.54 275.29ZM77.83 274.73L76.74 275.32C77.23 275.94 77.94 277.15 78.37 278L79.54 277.36C79.14 276.63 78.34 275.37 77.83 274.73ZM83.91 271.33V272.62C84.22 272.6 84.64 272.58 84.99 272.58H89C89.35 272.58 89.74 272.6 90.08 272.62V271.33C89.74 271.38 89.34 271.4 89 271.4H84.98C84.65 271.4 84.24 271.38 83.91 271.33ZM82.75 273.89V275.2C83.03 275.18 83.41 275.16 83.71 275.16H86.46C86.42 276 86.25 276.75 85.84 277.37C85.44 277.95 84.74 278.53 84.03 278.8L85.2 279.65C86.09 279.2 86.86 278.42 87.21 277.73C87.57 277.03 87.79 276.19 87.85 275.16H90.26C90.54 275.16 90.92 275.17 91.17 275.19V273.89C90.91 273.93 90.47 273.95 90.26 273.95H83.71C83.4 273.95 83.05 273.92 82.75 273.89ZM98.83 278.78L99.67 279.47C99.76 279.39 99.88 279.29 100.1 279.17C101.22 278.6 102.66 277.52 103.49 276.44L102.72 275.34C102.05 276.31 101.06 277.1 100.25 277.45V272.22C100.25 271.77 100.31 271.38 100.32 271.35H98.83C98.84 271.38 98.91 271.76 98.91 272.21V278.04C98.91 278.31 98.87 278.59 98.83 278.78ZM94.2 278.63L95.42 279.44C96.27 278.68 96.9 277.7 97.2 276.57C97.47 275.56 97.5 273.45 97.5 272.27C97.5 271.85 97.56 271.41 97.57 271.36H96.1C96.16 271.61 96.19 271.88 96.19 272.28C96.19 273.49 96.18 275.38 95.9 276.24C95.62 277.09 95.08 278.01 94.2 278.63ZM115.23 272.7L114.23 271.88C114.02 271.95 113.68 271.99 113.3 271.99H107.75C107.41 271.99 106.86 271.94 106.6 271.9V273.3C106.81 273.28 107.35 273.23 107.75 273.23H113.04C112.57 274.05 111.63 275.21 110.5 276.11C109.87 275.56 109.21 275.02 108.81 274.72L107.75 275.57C108.35 276 109.37 276.9 109.95 277.49C110.6 278.15 111.44 279.09 111.86 279.65L113.03 278.72C112.64 278.25 112.05 277.6 111.48 277.03C112.89 275.89 114.17 274.29 114.89 273.12C114.97 272.99 115.09 272.86 115.23 272.7ZM120.01 271.4L119.07 272.4C119.8 272.91 121.05 274 121.57 274.56L122.59 273.52C122.01 272.91 120.71 271.87 120.01 271.4ZM118.76 278.06L119.6 279.38C121.01 279.14 122.3 278.58 123.31 277.97C124.92 277 126.25 275.62 127.01 274.27L126.23 272.86C125.6 274.21 124.3 275.74 122.59 276.75C121.62 277.33 120.32 277.84 118.76 278.06Z" fill="black"/>
<path d="M432.096 253.748V252.62H433.284V253.34C433.284 253.472 433.284 253.616 433.272 253.748H432.096ZM435.84 252.62V253.748H434.556C434.568 253.628 434.568 253.496 434.568 253.376V252.62H435.84ZM432.528 249.584C433.092 249.104 433.584 248.576 433.92 248.072C434.28 248.576 434.796 249.116 435.372 249.584H432.528ZM437.124 254.84V251.528H434.568V250.76H436.152V250.172C436.464 250.376 436.788 250.568 437.1 250.724C437.292 250.34 437.568 249.812 437.832 249.476C436.584 249.008 435.36 248 434.532 246.848H433.236C432.66 247.772 431.616 248.792 430.452 249.38V249.296H429.36V246.836H428.04V249.296H426.576V250.616H427.956C427.644 252.044 426.996 253.7 426.3 254.648C426.516 254.984 426.816 255.536 426.948 255.92C427.356 255.344 427.728 254.516 428.04 253.616V258.032H429.36V252.932C429.612 253.436 429.852 253.952 429.984 254.3L430.704 253.196C430.524 252.896 429.684 251.612 429.36 251.192V250.616H430.452V250.04C430.596 250.28 430.716 250.532 430.8 250.736C431.136 250.568 431.46 250.376 431.784 250.148V250.76H433.284V251.528H430.86V254.84H433.056C432.72 255.692 431.916 256.472 430.08 257.048C430.296 257.276 430.704 257.816 430.836 258.104C432.6 257.54 433.56 256.688 434.064 255.728C434.796 257.024 435.744 257.636 436.932 258.092C437.088 257.672 437.424 257.204 437.748 256.904C436.596 256.544 435.696 256.088 435 254.84H437.124ZM441.744 255.332C441.12 255.968 440.016 256.58 439.008 256.952C439.32 257.192 439.848 257.684 440.1 257.96C441.108 257.48 442.32 256.664 443.1 255.848L441.744 255.332ZM448.308 255.104C448.536 255.296 448.728 255.488 448.884 255.644L449.892 254.828C449.256 254.192 447.984 253.304 447.048 252.716L446.112 253.436C446.388 253.616 446.676 253.808 446.964 254.024C446.004 254.036 445.056 254.048 444.144 254.06C445.236 253.412 446.376 252.656 447.324 251.936L446.052 251.252C445.428 251.804 444.588 252.44 443.7 253.028C443.484 252.872 443.232 252.704 442.968 252.536C443.532 252.128 444.18 251.612 444.756 251.096L444.384 250.916H448.356V252.212H449.772V249.728H445.188V248.996H449.616V247.772H445.188V246.836H443.784V247.772H439.44V248.996H443.784V249.728H439.332V252.212H440.688V250.916H443.088C442.752 251.264 442.344 251.636 441.96 251.948C441.792 251.852 441.612 251.768 441.456 251.684L440.508 252.5C441.168 252.836 441.96 253.328 442.536 253.76C442.356 253.868 442.176 253.976 441.996 254.072C440.976 254.084 440.052 254.084 439.296 254.084L439.368 255.356C440.592 255.332 442.128 255.296 443.796 255.248V258.044H445.212V255.2L448.308 255.104ZM445.908 256.016C446.88 256.556 448.152 257.384 448.74 257.924L449.916 257.12C449.232 256.568 447.924 255.788 446.988 255.296L445.908 256.016Z" fill="black"/>
<path d="M191.852 256.856C191.756 257.864 191.564 258.932 191.216 259.64C191.528 259.748 192.056 260 192.308 260.156C192.656 259.388 192.908 258.188 193.028 257.06L191.852 256.856ZM194.456 257.072C194.732 257.78 195.044 258.704 195.152 259.304L196.208 258.92C196.076 258.32 195.764 257.444 195.464 256.76L194.456 257.072ZM194.204 254.108C194.348 254.372 194.492 254.672 194.624 254.972L193.472 255.02C194.228 254.048 195.056 252.836 195.716 251.792L194.552 251.252C194.276 251.84 193.892 252.524 193.484 253.196C193.364 253.052 193.232 252.884 193.076 252.716C193.508 252.044 193.988 251.12 194.42 250.304L193.184 249.848C192.98 250.484 192.644 251.276 192.308 251.936C192.212 251.852 192.116 251.768 192.032 251.696L191.348 252.668C191.84 253.148 192.416 253.784 192.764 254.3C192.572 254.576 192.38 254.84 192.2 255.068L191.336 255.104L191.456 256.34L193.196 256.232V261.056H194.432V256.148L195.044 256.1C195.116 256.328 195.164 256.532 195.2 256.712L196.208 256.256C196.076 255.572 195.608 254.528 195.152 253.712L194.204 254.108ZM200.708 257.216V259.256H197.924V257.216H200.708ZM196.616 261.02H197.924V260.516H200.708V260.972H202.088V255.956H196.616V261.02ZM196.196 250.4V251.708H197.816C197.636 252.908 197.192 253.916 195.704 254.564C196.004 254.804 196.388 255.308 196.544 255.632C198.392 254.756 198.98 253.376 199.22 251.708H200.972C200.912 253.148 200.84 253.748 200.696 253.928C200.6 254.024 200.48 254.048 200.312 254.048C200.084 254.048 199.604 254.048 199.1 254C199.328 254.36 199.484 254.9 199.508 255.32C200.084 255.332 200.648 255.332 200.972 255.284C201.344 255.236 201.608 255.128 201.86 254.816C202.16 254.444 202.244 253.412 202.316 250.916C202.328 250.748 202.328 250.4 202.328 250.4H196.196ZM209.492 251.264C210.464 252.824 212.432 254.492 214.34 255.464C214.604 255.02 214.916 254.528 215.276 254.156C213.332 253.4 211.424 251.828 210.188 249.812H208.664C207.824 251.384 205.964 253.316 203.852 254.324C204.164 254.612 204.548 255.152 204.728 255.5C206.732 254.444 208.568 252.788 209.492 251.264ZM210.824 254.204V261.032H212.312V254.204H210.824ZM206.696 254.264V255.716C206.696 257.084 206.492 258.776 204.392 260.024C204.764 260.252 205.34 260.732 205.58 261.044C207.92 259.568 208.172 257.444 208.172 255.752V254.264H206.696Z" fill="black"/>
<path d="M398 160L492 160" stroke="#F6E0BB" stroke-width="3.5"/>
<path d="M406 179H484" stroke="#F6E0BB" stroke-width="3.5"/>
<path d="M399.449 151.852V153.592C399.857 153.568 400.409 153.544 400.865 153.544H405.821C406.241 153.544 406.805 153.58 407.153 153.592V151.852C406.817 151.888 406.301 151.924 405.821 151.924H400.853C400.445 151.924 399.881 151.9 399.449 151.852ZM398.441 157.72V159.556C398.885 159.52 399.473 159.484 399.941 159.484H406.829C407.189 159.484 407.729 159.508 408.149 159.556V157.72C407.741 157.768 407.237 157.792 406.829 157.792H399.941C399.473 157.792 398.909 157.756 398.441 157.72ZM411.053 154.444V156.328C411.497 156.292 412.301 156.268 412.985 156.268H419.429C419.933 156.268 420.545 156.316 420.833 156.328V154.444C420.521 154.468 419.993 154.516 419.429 154.516H412.985C412.361 154.516 411.485 154.48 411.053 154.444ZM431.107 150.016L430.159 150.412C430.375 150.736 430.615 151.156 430.819 151.54L430.675 151.432C430.435 151.516 429.955 151.576 429.439 151.576H425.203C424.843 151.576 424.111 151.54 423.787 151.492V153.196C424.039 153.184 424.699 153.112 425.203 153.112H429.271C429.007 153.964 428.275 155.152 427.483 156.052C426.355 157.312 424.495 158.776 422.563 159.496L423.799 160.792C425.443 160.024 427.039 158.764 428.311 157.432C429.439 158.512 430.555 159.748 431.335 160.828L432.703 159.628C431.995 158.764 430.543 157.228 429.355 156.196C430.159 155.116 430.831 153.844 431.239 152.908C431.347 152.656 431.563 152.296 431.659 152.152L431.383 151.948L432.067 151.66C431.863 151.24 431.419 150.472 431.107 150.016ZM432.619 149.596L431.671 149.992C431.995 150.436 432.391 151.144 432.643 151.636L433.591 151.228C433.375 150.808 432.943 150.052 432.619 149.596ZM439.807 151.612V153.148C441.319 153.292 443.491 153.28 444.967 153.148V151.6C443.671 151.756 441.283 151.816 439.807 151.612ZM440.767 156.736L439.387 156.604C439.255 157.216 439.183 157.696 439.183 158.164C439.183 159.4 440.179 160.132 442.243 160.132C443.599 160.132 444.559 160.048 445.339 159.904L445.315 158.284C444.259 158.5 443.371 158.596 442.303 158.596C441.079 158.596 440.623 158.272 440.623 157.744C440.623 157.42 440.671 157.132 440.767 156.736ZM437.959 150.808L436.279 150.664C436.267 151.048 436.195 151.504 436.159 151.84C436.027 152.764 435.655 154.792 435.655 156.592C435.655 158.224 435.883 159.688 436.123 160.516L437.515 160.42C437.503 160.252 437.491 160.06 437.491 159.928C437.491 159.808 437.515 159.544 437.551 159.364C437.683 158.728 438.079 157.42 438.415 156.424L437.671 155.836C437.503 156.232 437.311 156.652 437.131 157.06C437.095 156.82 437.083 156.508 437.083 156.28C437.083 155.08 437.503 152.68 437.659 151.876C437.707 151.66 437.863 151.06 437.959 150.808ZM455.359 157.396V159.352H450.619V157.396H455.359ZM449.215 161.056H450.619V160.612H455.359V161.056H456.823V156.136H449.215V161.056ZM450.547 153.688C451.531 152.908 452.371 152.056 452.935 151.252C453.511 152.044 454.399 152.908 455.395 153.688H450.547ZM452.131 149.848C451.231 151.312 449.311 153.124 447.247 154.12C447.559 154.42 447.955 154.936 448.147 155.284C448.783 154.936 449.419 154.54 450.007 154.108V154.948H455.983V154.12C456.583 154.552 457.207 154.948 457.819 155.26C458.071 154.816 458.395 154.348 458.743 153.976C456.835 153.208 454.891 151.684 453.607 149.848H452.131ZM462.775 151.348C462.775 151.48 462.751 151.816 462.727 152.272C462.211 152.344 461.683 152.404 461.335 152.428C460.915 152.452 460.639 152.452 460.291 152.44L460.447 153.976C461.119 153.88 462.043 153.76 462.631 153.688C462.619 153.976 462.595 154.264 462.571 154.54C461.887 155.548 460.687 157.132 460.003 157.972L460.951 159.28C461.371 158.716 461.959 157.84 462.463 157.084C462.451 158.092 462.439 158.788 462.415 159.724C462.415 159.916 462.403 160.348 462.379 160.612H464.035C463.999 160.336 463.963 159.904 463.951 159.688C463.879 158.56 463.879 157.552 463.879 156.568C463.879 156.256 463.891 155.908 463.903 155.56C464.911 154.636 466.027 154.024 467.299 154.024C468.499 154.024 469.255 154.888 469.255 155.824C469.267 157.696 467.755 158.56 465.643 158.872L466.363 160.324C469.339 159.736 470.863 158.284 470.863 155.86C470.851 153.928 469.399 152.62 467.551 152.62C466.471 152.62 465.235 152.956 464.023 153.856C464.035 153.748 464.035 153.628 464.047 153.52C464.251 153.208 464.491 152.812 464.659 152.596L464.215 152.032C464.311 151.276 464.407 150.664 464.479 150.328L462.727 150.268C462.787 150.64 462.775 151 462.775 151.348ZM481.231 150.58H479.623C479.659 150.82 479.707 151.384 479.707 151.684V153.04C478.615 153.136 477.451 153.244 476.431 153.34C476.431 152.872 476.443 152.464 476.443 152.188C476.443 151.684 476.455 151.348 476.515 150.94H474.823C474.883 151.372 474.919 151.78 474.919 152.272C474.919 152.476 474.919 152.92 474.919 153.484C474.535 153.52 474.223 153.544 474.007 153.568C473.395 153.628 472.843 153.652 472.495 153.652L472.663 155.188C472.975 155.14 473.719 155.02 474.103 154.972C474.307 154.948 474.583 154.924 474.907 154.888C474.907 156.004 474.907 157.168 474.919 157.684C474.979 159.76 475.351 160.408 478.459 160.408C479.599 160.408 481.075 160.312 481.879 160.216L481.939 158.584C481.039 158.74 479.527 158.884 478.351 158.884C476.551 158.884 476.443 158.62 476.419 157.444C476.395 156.928 476.407 155.824 476.419 154.72C477.439 154.612 478.615 154.504 479.683 154.42C479.671 154.996 479.635 155.548 479.587 155.872C479.563 156.1 479.455 156.148 479.215 156.148C478.975 156.148 478.483 156.076 478.111 155.992L478.075 157.324C478.495 157.384 479.455 157.504 479.887 157.504C480.499 157.504 480.799 157.348 480.931 156.712C481.027 156.208 481.075 155.224 481.111 154.312C481.459 154.288 481.771 154.276 482.035 154.264C482.347 154.252 482.983 154.24 483.187 154.252V152.776C482.839 152.812 482.371 152.836 482.035 152.86C481.759 152.872 481.459 152.896 481.135 152.92C481.147 152.524 481.147 152.092 481.159 151.624C481.171 151.3 481.207 150.772 481.231 150.58ZM485.443 151.744L485.599 153.388C486.991 153.088 489.439 152.824 490.567 152.704C489.763 153.316 488.791 154.684 488.791 156.412C488.791 159.004 491.167 160.36 493.675 160.528L494.239 158.884C492.211 158.776 490.363 158.056 490.363 156.088C490.363 154.66 491.443 153.1 492.895 152.716C493.531 152.572 494.563 152.572 495.211 152.56L495.199 151.024C494.359 151.048 493.039 151.132 491.803 151.228C489.607 151.42 487.627 151.6 486.631 151.684C486.391 151.708 485.923 151.732 485.443 151.744ZM410.922 173.68C411.174 172.756 411.366 171.328 411.39 170.332L410.382 170.2C410.322 171.172 410.142 172.516 409.89 173.332L410.922 173.68ZM415.482 176.272V175.72H419.07V176.272H415.482ZM419.07 174.148V174.712H415.482V174.148H419.07ZM420.414 173.104H414.162V179.056H415.482V177.256H419.07V177.652C419.07 177.796 419.01 177.844 418.842 177.844C418.686 177.844 418.122 177.856 417.63 177.82C417.798 178.168 417.966 178.684 418.014 179.032C418.842 179.032 419.442 179.032 419.862 178.828C420.294 178.636 420.414 178.3 420.414 177.676V173.104ZM417.954 171.628V171.112H420.534V170.152H417.954V169.672H420.858V168.652H417.954V167.836H416.538V168.652H413.73V169.672H416.538V170.152H414.054V171.1C413.91 170.656 413.634 169.984 413.382 169.468L412.698 169.756V167.836H411.414V179.032H412.698V170.308C412.89 170.776 413.058 171.28 413.142 171.628L414.078 171.172L414.054 171.112H416.538V171.628H413.358V172.648H421.218V171.628H417.954ZM426.246 173.5H424.506L424.89 173.392C424.842 173.056 424.674 172.54 424.47 172.108H426.294C426.186 172.516 426.006 173.032 425.862 173.392L426.246 173.5ZM426.042 170.08H427.602V168.904H426.042V167.86H424.722V168.904H423.006V170.08H424.722V170.908H422.586V172.108H423.774L423.342 172.216C423.51 172.612 423.666 173.116 423.738 173.5H422.838V174.7H424.722V175.624H422.934V176.824H424.722V179.008H426.042V176.824H427.734V175.624H426.042V174.7H427.866V173.5H426.966C427.134 173.14 427.314 172.672 427.518 172.228L427.05 172.108H428.046V170.908H426.042V170.08ZM429.558 174.076C429.858 175.024 430.242 175.9 430.71 176.668C430.374 177.136 429.99 177.544 429.558 177.892V174.076ZM432.054 173.584C431.91 174.232 431.694 174.868 431.418 175.444C431.07 174.868 430.782 174.244 430.566 173.584H432.054ZM432.69 172.396L432.45 172.456H429.558V169.588H431.946V170.572C431.946 170.704 431.886 170.74 431.706 170.752C431.526 170.752 430.866 170.752 430.278 170.728C430.446 171.076 430.626 171.568 430.686 171.952C431.562 171.952 432.21 171.94 432.666 171.748C433.134 171.556 433.266 171.208 433.266 170.596V168.34H428.262V179.032H429.558V178.324C429.81 178.552 430.062 178.828 430.218 179.068C430.71 178.708 431.142 178.276 431.526 177.784C431.97 178.288 432.462 178.72 433.026 179.056C433.23 178.696 433.638 178.192 433.95 177.928C433.326 177.616 432.774 177.16 432.282 176.62C432.894 175.492 433.314 174.148 433.542 172.696L432.69 172.396ZM440.562 168.376L438.978 168.244C438.954 168.676 438.87 169.144 438.738 169.624C438.546 169.624 438.342 169.624 438.162 169.624C437.55 169.624 436.662 169.576 436.05 169.48V170.884C436.71 170.932 437.586 170.956 438.078 170.956C438.126 170.956 438.174 170.956 438.234 170.956C437.694 172.036 436.842 173.104 435.582 174.268L436.866 175.228C437.274 174.7 437.622 174.268 437.982 173.908C438.438 173.464 439.182 173.08 439.854 173.08C440.19 173.08 440.514 173.188 440.694 173.488C439.326 174.196 437.886 175.156 437.886 176.692C437.886 178.24 439.278 178.696 441.162 178.696C442.29 178.696 443.766 178.6 444.558 178.492L444.606 176.944C443.55 177.148 442.218 177.28 441.198 177.28C440.022 177.28 439.458 177.1 439.458 176.44C439.458 175.84 439.938 175.372 440.838 174.856C440.826 175.384 440.814 175.96 440.778 176.32H442.218C442.206 175.768 442.182 174.88 442.17 174.208C442.902 173.872 443.586 173.608 444.126 173.392C444.534 173.236 445.17 172.996 445.554 172.888L444.954 171.496C444.51 171.724 444.09 171.916 443.622 172.12C443.13 172.336 442.626 172.54 442.002 172.828C441.738 172.216 441.138 171.904 440.406 171.904C440.01 171.904 439.362 172 439.05 172.144C439.29 171.796 439.53 171.364 439.734 170.92C441.03 170.884 442.506 170.788 443.646 170.62L443.658 169.228C442.602 169.408 441.402 169.516 440.262 169.576C440.418 169.072 440.502 168.676 440.562 168.376ZM452.502 168.256H450.846C450.882 168.472 450.93 169.06 450.93 169.312C450.93 169.516 450.93 169.864 450.918 170.284C450.678 170.296 450.438 170.308 450.222 170.308C449.79 170.308 449.274 170.296 448.566 170.212L448.59 171.664C448.998 171.712 449.466 171.724 450.27 171.724C450.462 171.724 450.678 171.712 450.906 171.7C450.906 172.036 450.906 172.372 450.906 172.708C450.906 172.984 450.906 173.272 450.918 173.56C449.442 174.196 448.242 175.288 448.242 176.332C448.242 177.604 449.886 178.612 451.05 178.612C451.842 178.612 452.37 178.216 452.37 176.728C452.37 176.32 452.346 175.384 452.322 174.436C453.054 174.22 453.834 174.1 454.578 174.1C455.622 174.1 456.342 174.58 456.342 175.396C456.342 176.272 455.574 176.752 454.602 176.932C454.182 177.004 453.666 177.016 453.126 177.016L453.678 178.564C454.17 178.528 454.698 178.492 455.25 178.372C457.158 177.892 457.902 176.824 457.902 175.408C457.902 173.752 456.45 172.792 454.602 172.792C453.942 172.792 453.114 172.9 452.298 173.104C452.298 172.948 452.298 172.804 452.298 172.66C452.298 172.312 452.298 171.94 452.31 171.58C453.09 171.484 453.918 171.364 454.602 171.208L454.566 169.72C453.942 169.9 453.15 170.056 452.358 170.152C452.37 169.852 452.382 169.564 452.394 169.3C452.418 168.988 452.466 168.472 452.502 168.256ZM455.922 169.552L455.262 170.716C456.006 171.076 457.578 171.976 458.154 172.468L458.874 171.244C458.238 170.788 456.846 169.996 455.922 169.552ZM449.718 176.272C449.718 175.852 450.21 175.36 450.942 174.964C450.966 175.612 450.978 176.164 450.978 176.464C450.978 176.872 450.81 176.968 450.594 176.968C450.282 176.968 449.718 176.644 449.718 176.272ZM467.598 177.412V176.44H469.338V177.412H467.598ZM464.598 176.44H466.218V177.412H464.598V176.44ZM466.218 174.412V175.3H464.598V174.412H466.218ZM469.338 174.412V175.3H467.598V174.412H469.338ZM469.122 169.684V170.704H462.846V169.684H469.122ZM467.598 173.164V171.988H470.574V168.388H461.394V171.904C461.394 173.788 461.31 176.476 460.11 178.3C460.47 178.444 461.106 178.804 461.382 179.032C462.63 177.112 462.846 174.064 462.846 171.988H466.218V173.164H463.254V179.032H464.598V178.66H469.338V179.032H470.742V173.164H467.598ZM481.686 168.46H479.946C479.994 168.652 480.054 168.988 480.078 169.288C480.102 169.612 480.114 170.236 480.126 170.908C479.67 170.92 479.202 170.932 478.77 170.932C478.134 170.932 477.546 170.884 476.958 170.8V172.324C477.546 172.348 478.29 172.384 478.806 172.384C479.25 172.384 479.694 172.372 480.15 172.36C480.15 172.528 480.15 172.672 480.15 172.792C480.15 174.82 479.958 175.888 479.034 176.848C478.698 177.22 478.098 177.604 477.642 177.808L479.022 178.9C481.422 177.376 481.638 175.636 481.638 172.804C481.638 172.684 481.638 172.504 481.638 172.3C482.31 172.264 482.934 172.216 483.414 172.156L483.426 170.596C482.934 170.692 482.298 170.764 481.626 170.812C481.626 170.152 481.626 169.528 481.626 169.276C481.638 169.012 481.65 168.724 481.686 168.46ZM475.722 168.664L473.946 168.484C473.934 168.784 473.922 169.192 473.862 169.528C473.718 170.5 473.478 172.348 473.478 174.316C473.478 175.804 473.898 177.484 474.162 178.204L475.494 178.072C475.482 177.904 475.47 177.7 475.47 177.58C475.47 177.436 475.494 177.172 475.542 176.992C475.686 176.308 476.01 175.096 476.358 174.064L475.614 173.584C475.41 174.028 475.194 174.604 475.038 174.976C474.714 173.488 475.134 170.968 475.434 169.636C475.494 169.384 475.614 168.952 475.722 168.664Z" fill="black"/>
<circle cx="320.5" cy="212.5" r="55" fill="white" stroke="black" stroke-width="3"/>
<path d="M289.102 216H286.299V201.996H289.102V208.998L294.316 201.996H297.5L293.076 207.904L297.5 216H294.316L291.24 210.336L289.102 213.197V216ZM301.191 219.984V217.299L302.675 217.318C302.935 217.318 303.186 217.276 303.427 217.191C303.668 217.107 303.889 216.99 304.091 216.84C304.299 216.69 304.482 216.511 304.638 216.303C304.794 216.101 304.921 215.88 305.019 215.639C304.726 215.762 304.426 215.886 304.12 216.01C303.821 216.133 303.518 216.195 303.212 216.195C302.568 216.195 301.962 216.081 301.396 215.854C300.829 215.626 300.331 215.303 299.902 214.887C299.478 214.464 299.143 213.952 298.896 213.354C298.655 212.748 298.534 212.071 298.534 211.322V205.541H301.191V211.322C301.191 211.693 301.243 212.019 301.347 212.299C301.458 212.572 301.604 212.803 301.786 212.992C301.969 213.174 302.18 213.311 302.421 213.402C302.668 213.493 302.932 213.539 303.212 213.539C303.486 213.539 303.743 213.477 303.984 213.354C304.231 213.223 304.446 213.054 304.628 212.846C304.81 212.637 304.954 212.403 305.058 212.143C305.162 211.876 305.214 211.602 305.214 211.322V205.541H307.9V214.682C307.893 215.417 307.75 216.107 307.47 216.752C307.19 217.396 306.806 217.96 306.318 218.441C305.836 218.923 305.273 219.304 304.628 219.584C303.984 219.864 303.293 220.004 302.558 220.004L301.191 219.984ZM320.848 210.678C320.848 211.459 320.708 212.188 320.428 212.865C320.148 213.536 319.767 214.118 319.286 214.613C318.804 215.102 318.237 215.489 317.586 215.775C316.942 216.055 316.248 216.195 315.506 216.195C314.771 216.195 314.077 216.055 313.426 215.775C312.782 215.489 312.215 215.102 311.727 214.613C311.245 214.118 310.864 213.536 310.584 212.865C310.304 212.188 310.164 211.459 310.164 210.678C310.164 209.883 310.304 209.148 310.584 208.471C310.864 207.794 311.245 207.211 311.727 206.723C312.215 206.228 312.782 205.84 313.426 205.561C314.077 205.281 314.771 205.141 315.506 205.141C316.248 205.141 316.942 205.274 317.586 205.541C318.237 205.801 318.804 206.176 319.286 206.664C319.767 207.146 320.148 207.729 320.428 208.412C320.708 209.089 320.848 209.844 320.848 210.678ZM318.163 210.678C318.163 210.248 318.091 209.861 317.948 209.516C317.811 209.164 317.622 208.865 317.381 208.617C317.14 208.363 316.857 208.171 316.532 208.041C316.213 207.904 315.871 207.836 315.506 207.836C315.142 207.836 314.797 207.904 314.471 208.041C314.152 208.171 313.872 208.363 313.631 208.617C313.397 208.865 313.211 209.164 313.075 209.516C312.938 209.861 312.87 210.248 312.87 210.678C312.87 211.081 312.938 211.456 313.075 211.801C313.211 212.146 313.397 212.445 313.631 212.699C313.872 212.953 314.152 213.155 314.471 213.305C314.797 213.448 315.142 213.52 315.506 213.52C315.871 213.52 316.213 213.451 316.532 213.314C316.857 213.178 317.14 212.986 317.381 212.738C317.622 212.491 317.811 212.191 317.948 211.84C318.091 211.488 318.163 211.101 318.163 210.678ZM328.289 216C327.644 216 327.039 215.88 326.472 215.639C325.906 215.391 325.408 215.056 324.978 214.633C324.555 214.203 324.22 213.705 323.972 213.139C323.731 212.572 323.611 211.967 323.611 211.322V208.217H322.312V205.561H323.611V201.381H326.267V205.561H330.31V208.217H326.267V211.322C326.267 211.602 326.319 211.866 326.423 212.113C326.528 212.354 326.671 212.566 326.853 212.748C327.035 212.93 327.25 213.077 327.498 213.188C327.745 213.292 328.009 213.344 328.289 213.344H330.31V216H328.289ZM342.721 210.678C342.721 211.459 342.582 212.188 342.302 212.865C342.022 213.536 341.641 214.118 341.159 214.613C340.677 215.102 340.111 215.489 339.46 215.775C338.815 216.055 338.122 216.195 337.38 216.195C336.644 216.195 335.951 216.055 335.3 215.775C334.655 215.489 334.089 215.102 333.6 214.613C333.119 214.118 332.738 213.536 332.458 212.865C332.178 212.188 332.038 211.459 332.038 210.678C332.038 209.883 332.178 209.148 332.458 208.471C332.738 207.794 333.119 207.211 333.6 206.723C334.089 206.228 334.655 205.84 335.3 205.561C335.951 205.281 336.644 205.141 337.38 205.141C338.122 205.141 338.815 205.274 339.46 205.541C340.111 205.801 340.677 206.176 341.159 206.664C341.641 207.146 342.022 207.729 342.302 208.412C342.582 209.089 342.721 209.844 342.721 210.678ZM340.036 210.678C340.036 210.248 339.964 209.861 339.821 209.516C339.684 209.164 339.496 208.865 339.255 208.617C339.014 208.363 338.731 208.171 338.405 208.041C338.086 207.904 337.744 207.836 337.38 207.836C337.015 207.836 336.67 207.904 336.345 208.041C336.026 208.171 335.746 208.363 335.505 208.617C335.27 208.865 335.085 209.164 334.948 209.516C334.811 209.861 334.743 210.248 334.743 210.678C334.743 211.081 334.811 211.456 334.948 211.801C335.085 212.146 335.27 212.445 335.505 212.699C335.746 212.953 336.026 213.155 336.345 213.305C336.67 213.448 337.015 213.52 337.38 213.52C337.744 213.52 338.086 213.451 338.405 213.314C338.731 213.178 339.014 212.986 339.255 212.738C339.496 212.491 339.684 212.191 339.821 211.84C339.964 211.488 340.036 211.101 340.036 210.678ZM356.587 212.924H353.921V210.258H351.148V207.602H353.921V204.721H356.587V207.602H359.351V210.258H356.587V212.924Z" fill="black"/>
<path d="M291.276 228.574C291.303 228.718 291.366 229.015 291.438 229.393C290.664 229.519 289.971 229.618 289.656 229.654C289.377 229.69 289.107 229.708 288.819 229.717L289.062 230.959C289.368 230.878 289.602 230.833 289.89 230.77C290.169 230.725 290.862 230.608 291.654 230.482C291.735 230.941 291.834 231.445 291.924 231.931C291.015 232.075 290.178 232.21 289.764 232.264C289.476 232.3 289.071 232.354 288.828 232.363L289.08 233.569C289.287 233.515 289.593 233.452 289.98 233.38C290.367 233.308 291.213 233.164 292.131 233.011C292.275 233.767 292.392 234.388 292.437 234.649C292.491 234.91 292.518 235.225 292.563 235.558L293.859 235.324C293.778 235.036 293.688 234.712 293.625 234.442C293.571 234.163 293.445 233.56 293.301 232.822C294.093 232.696 294.822 232.579 295.254 232.507C295.596 232.453 295.965 232.39 296.208 232.372L295.965 231.184C295.731 231.256 295.398 231.328 295.047 231.4C294.642 231.481 293.904 231.607 293.094 231.742C292.995 231.247 292.905 230.752 292.815 230.302C293.562 230.185 294.246 230.077 294.615 230.014C294.885 229.978 295.245 229.924 295.443 229.906L295.227 228.727C295.011 228.79 294.669 228.862 294.381 228.916C294.057 228.979 293.373 229.087 292.608 229.213C292.536 228.808 292.482 228.511 292.464 228.385C292.419 228.169 292.392 227.863 292.365 227.683L291.096 227.89C291.159 228.106 291.222 228.313 291.276 228.574ZM299.367 229.915V231.004C299.583 230.986 300.15 230.968 300.483 230.968H303.453V232.057H300.582C300.24 232.057 299.835 232.048 299.601 232.03V233.092C299.808 233.083 300.24 233.074 300.582 233.074H303.453V234.271H300.051C299.727 234.271 299.421 234.253 299.268 234.235V235.342C299.421 235.333 299.79 235.315 300.042 235.315H303.453C303.453 235.45 303.453 235.594 303.444 235.675H304.578C304.578 235.513 304.569 235.207 304.569 235.063V230.545C304.569 230.356 304.569 230.059 304.578 229.942C304.434 229.951 304.101 229.96 303.885 229.96H300.483C300.15 229.96 299.601 229.942 299.367 229.915ZM312.048 227.647H310.662C310.725 228.034 310.734 228.223 310.734 228.475V229.168H308.808C308.466 229.168 308.196 229.159 307.89 229.123C307.926 229.339 307.935 229.699 307.935 229.897V231.454C307.935 231.697 307.917 231.985 307.89 232.21H309.132C309.114 232.03 309.105 231.751 309.105 231.544V230.23H313.569C313.461 231.031 313.227 231.886 312.768 232.543C312.264 233.272 311.472 233.803 310.725 234.082C310.356 234.226 309.861 234.361 309.456 234.433L310.392 235.513C311.994 235.099 313.344 234.145 314.064 232.813C314.505 231.994 314.748 231.13 314.901 230.266C314.937 230.086 315.009 229.744 315.081 229.546L314.298 229.069C314.145 229.123 313.929 229.168 313.551 229.168H311.985V228.475C311.985 228.223 312.003 228.034 312.048 227.647ZM319.176 234.136C319.176 234.496 319.14 235.036 319.086 235.396H320.49C320.454 235.027 320.409 234.397 320.409 234.136V231.589C321.381 231.922 322.731 232.444 323.658 232.93L324.171 231.688C323.343 231.283 321.615 230.644 320.409 230.293V228.961C320.409 228.592 320.454 228.196 320.49 227.881H319.086C319.149 228.196 319.176 228.646 319.176 228.961V234.136ZM333.036 228.403C333.036 228.115 333.27 227.881 333.558 227.881C333.837 227.881 334.071 228.115 334.071 228.403C334.071 228.682 333.837 228.916 333.558 228.916C333.27 228.916 333.036 228.682 333.036 228.403ZM332.478 228.403C332.478 228.466 332.487 228.52 332.496 228.574C332.307 228.601 332.109 228.61 331.983 228.61H327.816C327.519 228.61 327.006 228.574 326.745 228.538V229.807C326.97 229.789 327.402 229.771 327.816 229.771H332.001C331.884 230.545 331.542 231.562 330.948 232.309C330.219 233.227 329.202 234.01 327.42 234.424L328.401 235.504C330.003 234.982 331.209 234.091 332.019 233.011C332.775 232.012 333.162 230.617 333.369 229.735C333.396 229.654 333.414 229.564 333.441 229.465C333.477 229.474 333.522 229.474 333.558 229.474C334.143 229.474 334.629 228.988 334.629 228.403C334.629 227.809 334.143 227.323 333.558 227.323C332.964 227.323 332.478 227.809 332.478 228.403ZM337.257 228.097V229.258C337.518 229.24 337.905 229.231 338.193 229.231H341.64C341.964 229.231 342.387 229.24 342.63 229.258V228.097C342.378 228.133 341.937 228.142 341.658 228.142H338.193C337.887 228.142 337.509 228.133 337.257 228.097ZM343.386 230.707L342.585 230.212C342.459 230.266 342.216 230.302 341.928 230.302H337.473C337.194 230.302 336.807 230.275 336.429 230.248V231.418C336.807 231.382 337.257 231.373 337.473 231.373H341.82C341.658 231.877 341.379 232.435 340.893 232.93C340.209 233.632 339.129 234.226 337.779 234.505L338.67 235.522C339.822 235.198 340.974 234.586 341.883 233.578C342.558 232.831 342.945 231.958 343.215 231.085C343.251 230.986 343.323 230.824 343.386 230.707ZM352.03 228.898L351.292 228.349C351.112 228.412 350.752 228.466 350.365 228.466H347.188C346.918 228.466 346.369 228.439 346.126 228.403V229.681C346.315 229.672 346.81 229.618 347.188 229.618H350.239C350.041 230.257 349.492 231.148 348.898 231.823C348.052 232.768 346.657 233.866 345.208 234.406L346.135 235.378C347.368 234.793 348.565 233.857 349.519 232.849C350.365 233.668 351.202 234.586 351.787 235.396L352.813 234.505C352.282 233.857 351.193 232.705 350.302 231.931C350.905 231.121 351.409 230.158 351.715 229.456C351.796 229.276 351.958 228.997 352.03 228.898Z" fill="black"/>
<line x1="405" y1="201.5" x2="471" y2="201.5" stroke="black"/>
<path d="M465.5 206.5V196L472 201.5L465.5 206.5Z" fill="black"/>
<line x1="170" y1="201.5" x2="236" y2="201.5" stroke="black"/>
<path d="M230.5 206.5V196L237 201.5L230.5 206.5Z" fill="black"/>
<path d="M412 224.5C423.167 230.5 450.5 238.3 470.5 221.5" stroke="black"/>
<path d="M415.462 219.856L409.232 228.309L407.263 220.025L415.462 219.856Z" fill="black"/>
<path d="M179 225.5C190.167 231.5 217.5 239.3 237.5 222.5" stroke="black"/>
<path d="M182.462 220.856L176.232 229.309L174.263 221.025L182.462 220.856Z" fill="black"/>
<path d="M101 234V192H131V234H101Z" stroke="black" stroke-width="5"/>
<rect x="117" y="200" width="5" height="5" fill="black"/>
<rect x="107" y="200" width="5" height="5" fill="black"/>
<rect x="107" y="210" width="5" height="5" fill="black"/>
<rect x="107" y="221" width="5" height="5" fill="black"/>
<rect x="117" y="210" width="5" height="5" fill="black"/>
<rect x="117" y="221" width="5" height="5" fill="black"/>
<path d="M73 205.676L95.9565 192L117 205.676V238H73V205.676Z" fill="#FCFBF6"/>
<path d="M78 210L94.6957 199L110 210V236H78V210Z" fill="white" stroke="black" stroke-width="5"/>
<circle cx="539" cy="212" r="21.5" stroke="black" stroke-width="5"/>
<path d="M524 228C529.667 223.833 540.6 218 553 228" stroke="black" stroke-width="5"/>
<circle cx="539" cy="207" r="7.5" stroke="black" stroke-width="5"/>
</svg>
